<svg width="16" height="16" viewBox="0 0 16 16" fill="none" xmlns="http://www.w3.org/2000/svg">
<path fill-rule="evenodd" clip-rule="evenodd" d="M10.382 0.733734C10.6068 0.229289 11.198 0.00262368 11.7024 0.227464C12.2069 0.452304 12.4336 1.04351 12.2087 1.54795L9.0926 8.53917L9.84117 10.2186C10.483 9.47252 11.4341 9.00004 12.4955 9.00004C14.4285 9.00004 15.9955 10.567 15.9955 12.5C15.9955 14.433 14.4285 16 12.4955 16C11.0005 16 9.72437 15.0627 9.22287 13.7435L9.21378 13.7237L7.99777 10.9955L6.78176 13.7237L6.77266 13.7435C6.27117 15.0627 4.99505 16 3.5 16C1.567 16 0 14.433 0 12.5C0 10.567 1.567 9.00004 3.5 9.00004C4.56142 9.00004 5.51249 9.47252 6.15436 10.2186L7.78519 6.55976L7.99581 6.07844L7.99777 6.08283L10.382 0.733734ZM3.5 14C4.32843 14 5 13.3285 5 12.5C5 11.6716 4.32843 11 3.5 11C2.67157 11 2 11.6716 2 12.5C2 13.3285 2.67157 14 3.5 14ZM4.29309 0.227464C4.79754 0.00262368 5.38874 0.229289 5.61358 0.733734L7.2976 4.51195L6.21283 6.99088L3.78682 1.54795C3.56198 1.04351 3.78865 0.452304 4.29309 0.227464ZM10.9955 12.5C10.9955 13.3285 11.6671 14 12.4955 14C13.324 14 13.9955 13.3285 13.9955 12.5C13.9955 11.6716 13.324 11 12.4955 11C11.6671 11 10.9955 11.6716 10.9955 12.5Z" fill="#6C5AFB"/>
</svg>
